<svg width="24" height="24" viewBox="0 0 24 24" fill="none" xmlns="http://www.w3.org/2000/svg">
<g clip-path="url(#clip0_582_32809)">
<path d="M0.508167 11.8564C0.507609 13.8729 1.03449 15.8418 2.03635 17.5773L0.412354 23.5067L6.48045 21.9157C8.1588 22.8294 10.0393 23.3081 11.9502 23.3082H11.9552C18.2636 23.3082 23.3988 18.1749 23.4015 11.8654C23.4027 8.80804 22.2131 5.93307 20.0518 3.77009C17.8909 1.6073 15.0169 0.41558 11.9548 0.414185C5.64566 0.414185 0.510865 5.54721 0.508261 11.8564" fill="url(#paint0_linear_582_32809)"/>
<path d="M0.0995349 11.8527C0.0988837 13.9417 0.644651 15.981 1.68223 17.7786L0 23.9207L6.28567 22.2726C8.01758 23.2168 9.96754 23.7147 11.9517 23.7154H11.9568C18.4915 23.7154 23.8112 18.3975 23.814 11.8621C23.8151 8.69488 22.5827 5.71656 20.3442 3.47609C18.1054 1.23591 15.1287 0.00130233 11.9568 0C5.42102 0 0.10214 5.31721 0.0995349 11.8527ZM3.84288 17.469L3.60819 17.0965C2.62158 15.5277 2.10084 13.7149 2.10158 11.8534C2.10363 6.4213 6.52447 2.00186 11.9606 2.00186C14.5931 2.00298 17.0672 3.02921 18.928 4.89116C20.7887 6.7533 21.8127 9.22865 21.812 11.8614C21.8096 17.2935 17.3887 21.7135 11.9568 21.7135H11.9529C10.1843 21.7126 8.44967 21.2376 6.93693 20.34L6.57693 20.1265L2.84688 21.1045L3.84288 17.469Z" fill="url(#paint1_linear_582_32809)"/>
<path d="M8.99328 6.89746C8.77133 6.40416 8.53775 6.39421 8.32668 6.38556C8.15384 6.37811 7.95626 6.37867 7.75886 6.37867C7.56128 6.37867 7.24026 6.453 6.96891 6.74928C6.69728 7.04583 5.93188 7.76249 5.93188 9.22007C5.93188 10.6777 6.99356 12.0864 7.14156 12.2843C7.28975 12.4817 9.19114 15.5686 12.2025 16.7562C14.7052 17.743 15.2145 17.5468 15.7577 17.4973C16.3009 17.448 17.5106 16.7808 17.7574 16.089C18.0043 15.3973 18.0043 14.8043 17.9303 14.6804C17.8563 14.557 17.6587 14.4829 17.3624 14.3348C17.066 14.1866 15.6095 13.4698 15.3379 13.371C15.0663 13.2722 14.8688 13.2229 14.6712 13.5195C14.4737 13.8157 13.9063 14.4829 13.7334 14.6804C13.5606 14.8785 13.3877 14.9031 13.0915 14.755C12.795 14.6063 11.8409 14.2938 10.7089 13.2846C9.82816 12.4993 9.23356 11.5296 9.06072 11.2329C8.88788 10.9367 9.04221 10.7762 9.19077 10.6285C9.32388 10.4958 9.48714 10.2826 9.63542 10.1096C9.78314 9.93663 9.83244 9.81318 9.93123 9.6156C10.0301 9.41783 9.98063 9.24481 9.90668 9.09663C9.83244 8.94844 9.25672 7.48323 8.99328 6.89746Z" fill="white"/>
</g>
<defs>
<linearGradient id="paint0_linear_582_32809" x1="1149.87" y1="2309.67" x2="1149.87" y2="0.414185" gradientUnits="userSpaceOnUse">
<stop stop-color="#1FAF38"/>
<stop offset="1" stop-color="#60D669"/>
</linearGradient>
<linearGradient id="paint1_linear_582_32809" x1="1190.7" y1="2392.07" x2="1190.7" y2="0" gradientUnits="userSpaceOnUse">
<stop stop-color="#F9F9F9"/>
<stop offset="1" stop-color="white"/>
</linearGradient>
<clipPath id="clip0_582_32809">
<rect width="23.814" height="24" fill="white"/>
</clipPath>
</defs>
</svg>
