<svg width="32" height="32" viewBox="0 0 32 32" fill="none" xmlns="http://www.w3.org/2000/svg">
<rect width="32" height="32" rx="16" fill="#F9FAFB"/>
<path fill-rule="evenodd" clip-rule="evenodd" d="M16.0541 9.67273C16.1831 9.90166 16.1656 10.185 16.0094 10.3963C15.4399 11.1668 15.1659 12.116 15.2371 13.0714C15.3084 14.0268 15.7202 14.9249 16.3976 15.6024C17.0751 16.2798 17.9732 16.6916 18.9286 16.7629C19.884 16.8341 20.8333 16.5601 21.6037 15.9906C21.815 15.8344 22.0984 15.8169 22.3273 15.9459C22.5562 16.075 22.688 16.3264 22.6638 16.5881C22.5473 17.849 22.0741 19.0506 21.2996 20.0524C20.525 21.0541 19.4812 21.8146 18.2903 22.2448C17.0993 22.6749 15.8105 22.757 14.5746 22.4815C13.3386 22.2059 12.2068 21.584 11.3114 20.6886C10.416 19.7933 9.79414 18.6614 9.51856 17.4255C9.24298 16.1896 9.32508 14.9007 9.75526 13.7098C10.1854 12.5188 10.9459 11.475 11.9477 10.7005C12.9494 9.92595 14.1511 9.45274 15.412 9.33621C15.6736 9.31203 15.9251 9.44381 16.0541 9.67273ZM14.2109 10.9594C13.6925 11.147 13.2037 11.4147 12.7632 11.7553C11.9618 12.3749 11.3534 13.21 11.0093 14.1627C10.6652 15.1155 10.5995 16.1466 10.8199 17.1353C11.0404 18.124 11.5379 19.0295 12.2542 19.7458C12.9705 20.4621 13.876 20.9596 14.8647 21.1801C15.8535 21.4006 16.8845 21.3349 17.8373 20.9907C18.7901 20.6466 19.6251 20.0382 20.2447 19.2368C20.5853 18.7963 20.853 18.3075 21.0406 17.7891C20.3385 18.0431 19.5854 18.1489 18.8295 18.0925C17.5556 17.9975 16.3581 17.4485 15.4548 16.5452C14.5516 15.6419 14.0025 14.4444 13.9075 13.1706C13.8511 12.4146 13.9569 11.6615 14.2109 10.9594Z" fill="#9CA3AF"/>
</svg>
