<svg width="32" height="32" viewBox="0 0 32 32" fill="none" xmlns="http://www.w3.org/2000/svg">
<path fill-rule="evenodd" clip-rule="evenodd" d="M16.0542 9.67268C16.1832 9.9016 16.1657 10.185 16.0095 10.3963C15.4401 11.1667 15.166 12.116 15.2373 13.0714C15.3085 14.0268 15.7203 14.9249 16.3978 15.6023C17.0752 16.2798 17.9733 16.6916 18.9287 16.7628C19.8841 16.8341 20.8334 16.56 21.6038 15.9906C21.8151 15.8344 22.0985 15.8169 22.3274 15.9459C22.5563 16.0749 22.6881 16.3264 22.6639 16.588C22.5474 17.8489 22.0742 19.0505 21.2997 20.0523C20.5251 21.0541 19.4813 21.8145 18.2904 22.2447C17.0994 22.6749 15.8106 22.757 14.5747 22.4814C13.3388 22.2058 12.2069 21.584 11.3115 20.6886C10.4161 19.7932 9.79426 18.6613 9.51868 17.4254C9.2431 16.1895 9.32521 14.9007 9.75539 13.7097C10.1856 12.5188 10.946 11.4749 11.9478 10.7004C12.9496 9.92589 14.1512 9.45268 15.4121 9.33616C15.6737 9.31198 15.9252 9.44376 16.0542 9.67268ZM14.211 10.9594C13.6926 11.1469 13.2038 11.4147 12.7633 11.7552C11.9619 12.3749 11.3536 13.2099 11.0094 14.1627C10.6653 15.1154 10.5996 16.1465 10.8201 17.1352C11.0405 18.124 11.538 19.0295 12.2543 19.7458C12.9706 20.4621 13.8761 20.9596 14.8649 21.18C15.8536 21.4005 16.8847 21.3348 17.8374 20.9907C18.7902 20.6465 19.6252 20.0382 20.2448 19.2367C20.5854 18.7963 20.8532 18.3075 21.0407 17.7891C20.3386 18.0431 19.5856 18.1488 18.8296 18.0925C17.5557 17.9975 16.3582 17.4484 15.455 16.5451C14.5517 15.6419 14.0026 14.4444 13.9076 13.1705C13.8513 12.4145 13.957 11.6615 14.211 10.9594Z" fill="#9CA3AF"/>
</svg>
