<svg width="24" height="24" viewBox="0 0 24 24" fill="none" xmlns="http://www.w3.org/2000/svg">
<g clip-path="url(#clip0_439_5712)">
<rect x="-2" width="36" height="24" rx="2" fill="white"/>
<mask id="mask0_439_5712" style="mask-type:luminance" maskUnits="userSpaceOnUse" x="-2" y="0" width="36" height="24">
<rect x="-2" width="36" height="24" rx="2" fill="white"/>
</mask>
<g mask="url(#mask0_439_5712)">
<path fill-rule="evenodd" clip-rule="evenodd" d="M-2 6.4H34V0H-2V6.4Z" fill="#DD172C"/>
<path fill-rule="evenodd" clip-rule="evenodd" d="M-2 24.0001H34V17.6001H-2V24.0001Z" fill="#DD172C"/>
<path fill-rule="evenodd" clip-rule="evenodd" d="M-2 17.5999H34V6.3999H-2V17.5999Z" fill="#FFD133"/>
<path fill-rule="evenodd" clip-rule="evenodd" d="M7.42859 11.2001H9.14287V12.0001H7.42859V11.2001Z" fill="#FFEDB1"/>
<path d="M6.01455 10.7332H8.84258C9.03837 10.7332 9.192 10.9012 9.17459 11.0962L8.9193 13.9555C8.87325 14.4713 8.44108 14.8666 7.92326 14.8666H6.93387C6.41605 14.8666 5.98388 14.4713 5.93783 13.9555L5.68254 11.0962C5.66512 10.9012 5.81875 10.7332 6.01455 10.7332Z" stroke="#A41517" stroke-width="0.666667"/>
<path fill-rule="evenodd" clip-rule="evenodd" d="M5.71429 12H9.14287V12.8H8.28572L7.42858 14.4L6.57144 12.8H5.71429V12Z" fill="#A41517"/>
<rect x="3.14288" y="9.6001" width="1.71429" height="5.6" rx="0.666667" fill="#A41517"/>
<rect x="10" y="9.6001" width="1.71428" height="5.6" rx="0.666667" fill="#A41517"/>
<path d="M5.71429 9.28C5.71429 8.57308 6.28737 8 6.99429 8H7.86287C8.56979 8 9.14287 8.57308 9.14287 9.28V9.28C9.14287 9.45673 8.9996 9.6 8.82287 9.6H6.03429C5.85756 9.6 5.71429 9.45673 5.71429 9.28V9.28Z" fill="#A41517"/>
</g>
</g>
<rect x="0.5" y="0.5" width="23" height="23" rx="11.5" stroke="#E5E7EB"/>
<defs>
<clipPath id="clip0_439_5712">
<rect width="24" height="24" rx="12" fill="white"/>
</clipPath>
</defs>
</svg>
