<svg width="32" height="32" viewBox="0 0 32 32" fill="none" xmlns="http://www.w3.org/2000/svg">
<g clip-path="url(#clip0_2012_16051)">
<path fill-rule="evenodd" clip-rule="evenodd" d="M16 8C16.3682 8 16.6667 8.29848 16.6667 8.66667V10C16.6667 10.3682 16.3682 10.6667 16 10.6667C15.6318 10.6667 15.3333 10.3682 15.3333 10V8.66667C15.3333 8.29848 15.6318 8 16 8ZM16 13.3333C14.5272 13.3333 13.3333 14.5272 13.3333 16C13.3333 17.4728 14.5272 18.6667 16 18.6667C17.4728 18.6667 18.6667 17.4728 18.6667 16C18.6667 14.5272 17.4728 13.3333 16 13.3333ZM12 16C12 13.7909 13.7909 12 16 12C18.2091 12 20 13.7909 20 16C20 18.2091 18.2091 20 16 20C13.7909 20 12 18.2091 12 16ZM16.6667 22C16.6667 21.6318 16.3682 21.3333 16 21.3333C15.6318 21.3333 15.3333 21.6318 15.3333 22V23.3333C15.3333 23.7015 15.6318 24 16 24C16.3682 24 16.6667 23.7015 16.6667 23.3333V22ZM10.3411 10.3424C10.6014 10.082 11.0236 10.082 11.2839 10.3424L12.2306 11.2891C12.4909 11.5494 12.4909 11.9715 12.2306 12.2319C11.9702 12.4922 11.5481 12.4922 11.2878 12.2319L10.3411 11.2852C10.0807 11.0249 10.0807 10.6027 10.3411 10.3424ZM20.711 19.7682C20.4506 19.5078 20.0285 19.5078 19.7682 19.7682C19.5078 20.0285 19.5078 20.4506 19.7682 20.711L20.7148 21.6577C20.9752 21.918 21.3973 21.918 21.6577 21.6577C21.918 21.3973 21.918 20.9752 21.6577 20.7148L20.711 19.7682ZM8 16C8 15.6318 8.29848 15.3333 8.66667 15.3333H10C10.3682 15.3333 10.6667 15.6318 10.6667 16C10.6667 16.3682 10.3682 16.6667 10 16.6667H8.66667C8.29848 16.6667 8 16.3682 8 16ZM22 15.3333C21.6318 15.3333 21.3333 15.6318 21.3333 16C21.3333 16.3682 21.6318 16.6667 22 16.6667H23.3333C23.7015 16.6667 24 16.3682 24 16C24 15.6318 23.7015 15.3333 23.3333 15.3333H22ZM12.2306 19.7682C12.4909 20.0285 12.4909 20.4506 12.2306 20.711L11.2839 21.6577C11.0236 21.918 10.6014 21.918 10.3411 21.6577C10.0807 21.3973 10.0807 20.9752 10.3411 20.7148L11.2878 19.7682C11.5481 19.5078 11.9702 19.5078 12.2306 19.7682ZM21.6577 11.2852C21.918 11.0249 21.918 10.6027 21.6577 10.3424C21.3973 10.082 20.9752 10.082 20.7148 10.3424L19.7682 11.2891C19.5078 11.5494 19.5078 11.9715 19.7682 12.2319C20.0285 12.4922 20.4506 12.4922 20.711 12.2319L21.6577 11.2852Z" fill="white"/>
</g>
<defs>
<clipPath id="clip0_2012_16051">
<rect width="16" height="16" fill="white" transform="translate(8 8)"/>
</clipPath>
</defs>
</svg>
