<svg width="24" height="24" viewBox="0 0 24 24" fill="none" xmlns="http://www.w3.org/2000/svg">
<g clip-path="url(#clip0_439_5720)">
<rect x="-6" width="36" height="24" rx="2" fill="white"/>
<mask id="mask0_439_5720" style="mask-type:luminance" maskUnits="userSpaceOnUse" x="-6" y="0" width="36" height="24">
<rect x="-6" width="36" height="24" rx="2" fill="white"/>
</mask>
<g mask="url(#mask0_439_5720)">
<rect x="-6" width="36" height="24" fill="#FF2936"/>
<path fill-rule="evenodd" clip-rule="evenodd" d="M-6 24H7.71429V0H-6V24Z" fill="#128415"/>
<path d="M7.71428 15.8667C9.93195 15.8667 11.8095 14.1781 11.8095 12C11.8095 9.82197 9.93195 8.13338 7.71428 8.13338C5.49661 8.13338 3.61904 9.82197 3.61904 12C3.61904 14.1781 5.49661 15.8667 7.71428 15.8667Z" stroke="#FAF94F" stroke-width="1.33333"/>
<path fill-rule="evenodd" clip-rule="evenodd" d="M6 9.93343C6 9.74934 6.14924 9.6001 6.33333 9.6001H9.09524C9.27933 9.6001 9.42857 9.74934 9.42857 9.93343V13.0668C9.42857 13.8031 8.83162 14.4001 8.09524 14.4001H7.33333C6.59695 14.4001 6 13.8031 6 13.0668V9.93343Z" fill="white"/>
<path fill-rule="evenodd" clip-rule="evenodd" d="M7.71426 12.7999C8.18765 12.7999 8.5714 11.6417 8.5714 11.1999C8.5714 10.7581 8.18765 10.3999 7.71426 10.3999C7.24087 10.3999 6.85712 10.7581 6.85712 11.1999C6.85712 11.6417 7.24087 12.7999 7.71426 12.7999Z" fill="#1D50B5"/>
</g>
</g>
<rect x="0.5" y="0.5" width="23" height="23" rx="11.5" stroke="#E5E7EB"/>
<defs>
<clipPath id="clip0_439_5720">
<rect width="24" height="24" rx="12" fill="white"/>
</clipPath>
</defs>
</svg>
